HIERARCHY
ROOT joint_Root
{
	OFFSET 0.0 0.0 0.0
	CHANNELS 6 Xposition Yposition Zposition Zrotation Xrotation Yrotation 
	JOINT Hips
	{
		OFFSET -17.1583 93.1646 452.98
		CHANNELS 6 Xposition Yposition Zposition Zrotation Xrotation Yrotation 
		JOINT Spine
		{
			OFFSET 15.7357 0.0 0.0
			CHANNELS 6 Xposition Yposition Zposition Zrotation Xrotation Yrotation 
			JOINT Chest
			{
				OFFSET 8.98455 -0.406207 0.0
				CHANNELS 6 Xposition Yposition Zposition Zrotation Xrotation Yrotation 
				JOINT Neck
				{
					OFFSET 16.3773 0.0 0.0
					CHANNELS 6 Xposition Yposition Zposition Zrotation Xrotation Yrotation 
					JOINT Head
					{
						OFFSET 6.45672 0.0 0.0
						CHANNELS 6 Xposition Yposition Zposition Zrotation Xrotation Yrotation 
						End Site
						{
							OFFSET 0.0 0.0 0.0
						}
					}
				}
				JOINT Shoulder_L
				{
					OFFSET 12.9942 -0.242716 4.98039
					CHANNELS 6 Xposition Yposition Zposition Zrotation Xrotation Yrotation 
					JOINT UpperArm_L
					{
						OFFSET 5.34809 0.0 0.0
						CHANNELS 6 Xposition Yposition Zposition Zrotation Xrotation Yrotation 
						JOINT LowerArm_L
						{
							OFFSET 24.3286 1.87007e-05 0.0
							CHANNELS 6 Xposition Yposition Zposition Zrotation Xrotation Yrotation 
							JOINT Hand_L
							{
								OFFSET 22.2916 0.0 0.0
								CHANNELS 6 Xposition Yposition Zposition Zrotation Xrotation Yrotation 
								End Site
								{
									OFFSET 0.0 0.0 0.0
								}
							}
						}
					}
				}
				JOINT Shoulder_R
				{
					OFFSET 12.9945 -0.242716 -4.98039
					CHANNELS 6 Xposition Yposition Zposition Zrotation Xrotation Yrotation 
					JOINT UpperArm_R
					{
						OFFSET -5.34813 0.0 0.0
						CHANNELS 6 Xposition Yposition Zposition Zrotation Xrotation Yrotation 
						JOINT LowerArm_R
						{
							OFFSET -24.3289 0.000322201 0.0
							CHANNELS 6 Xposition Yposition Zposition Zrotation Xrotation Yrotation 
							JOINT Hand_R
							{
								OFFSET -22.2915 -0.000108084 0.0
								CHANNELS 6 Xposition Yposition Zposition Zrotation Xrotation Yrotation 
								End Site
								{
									OFFSET 0.0 0.0 0.0
								}
							}
						}
					}
				}
			}
		}
		JOINT UpperLeg_L
		{
			OFFSET -2.19248 -6.46944 0.0
			CHANNELS 6 Xposition Yposition Zposition Zrotation Xrotation Yrotation 
			JOINT LowerLeg_L
			{
				OFFSET 39.0811 0.0 -1.23785e-05
				CHANNELS 6 Xposition Yposition Zposition Zrotation Xrotation Yrotation 
				JOINT Foot_L
				{
					OFFSET 40.9854 0.0 -1.26872e-05
					CHANNELS 6 Xposition Yposition Zposition Zrotation Xrotation Yrotation 
					JOINT Toes_L
					{
						OFFSET 11.7543 0.0 0.0
						CHANNELS 6 Xposition Yposition Zposition Zrotation Xrotation Yrotation 
						End Site
						{
							OFFSET 0.0 0.0 0.0
						}
					}
				}
			}
		}
		JOINT UpperLeg_R
		{
			OFFSET -2.19251 6.46944 0.0
			CHANNELS 6 Xposition Yposition Zposition Zrotation Xrotation Yrotation 
			JOINT LowerLeg_R
			{
				OFFSET -39.0811 -0.00228153 -0.0401928
				CHANNELS 6 Xposition Yposition Zposition Zrotation Xrotation Yrotation 
				JOINT Foot_R
				{
					OFFSET -40.9854 0.0 0.0
					CHANNELS 6 Xposition Yposition Zposition Zrotation Xrotation Yrotation 
					JOINT Toes_R
					{
						OFFSET -11.7543 0.0 0.0
						CHANNELS 6 Xposition Yposition Zposition Zrotation Xrotation Yrotation 
						End Site
						{
							OFFSET 0.0 0.0 0.0
						}
					}
				}
			}
		}
	}
}
MOTION
Frames:	6
Frame Time:	0.0333333
0.000000 0.000000 0.000000 0.000000 0.000000 -0.000000 0.785205 87.380300 -465.447000 85.541300 1.744560 -16.612400 15.735700 0.000005 -0.000001 63.466700 82.419800 -60.625000 8.984550 -0.406207 -0.000000 6.005910 -6.798390 6.039390 16.377300 -0.000001 -0.000001 -6.331730 5.595530 -2.525150 6.456720 -0.000001 -0.000000 -12.714500 9.622380 -0.724912 12.994200 -0.242716 4.980390 -91.647800 6.668730 -76.086300 5.348090 -0.000007 -0.000001 -67.200100 -25.219400 -13.354200 24.328600 0.000019 0.000005 62.466400 -2.841210 -91.480300 22.291600 -0.000001 0.000005 41.995700 3.815110 26.794500 12.994500 -0.242716 -4.980390 89.079500 2.972010 -72.783200 -5.348130 -0.000001 -0.000004 -58.859300 -12.765100 20.541700 -24.328900 0.000322 -0.000009 7.273320 12.696600 -30.147200 -22.291500 -0.000108 -0.000004 44.891300 5.377080 -2.209350 -2.192480 -6.469440 -0.000000 -173.697000 -4.881240 -8.531580 39.081100 -0.000007 -0.000012 0.051046 -0.087106 30.371100 40.985400 -0.000006 -0.000013 -0.167693 18.473000 -83.936300 11.754300 -0.000000 0.000003 -0.000145 -0.002404 -16.675100 -2.192510 6.469440 -0.000001 -171.025000 -5.639290 124.998000 -39.081100 -0.002282 -0.040193 -0.206452 0.038751 79.512600 -40.985400 0.000008 0.000006 -4.325260 -18.375100 -70.125700 -11.754300 -0.000006 -0.000006 -0.000023 0.168050 -9.757280
0.000000 0.000000 0.000000 0.000000 0.000000 -0.000000 0.124175 89.976600 -458.313000 82.504900 0.946349 -19.654200 15.735700 0.000005 -0.000001 56.964100 83.576400 -53.055600 8.984550 -0.406207 -0.000000 3.282490 -7.149030 8.021990 16.377300 -0.000001 -0.000001 -5.116690 6.612270 -2.721640 6.456720 -0.000001 -0.000000 -10.856700 11.239400 -1.128800 12.994200 -0.242716 4.980390 -91.471000 5.709850 -75.527600 5.348090 -0.000007 -0.000001 -67.352600 -26.186000 -11.895000 24.328600 0.000019 0.000005 61.160600 -5.395540 -92.964300 22.291600 -0.000001 0.000005 43.978200 3.807310 26.901300 12.994500 -0.242716 -4.980390 89.543400 1.496980 -73.034500 -5.348130 -0.000001 -0.000004 -54.894700 -15.674100 25.693500 -24.328900 0.000322 -0.000009 6.615030 11.425100 -30.351000 -22.291500 -0.000108 -0.000004 46.733900 5.337060 -0.993503 -2.192480 -6.469440 -0.000000 -170.928000 -7.386970 -2.758800 39.081100 -0.000007 -0.000012 0.027811 -0.081158 18.915700 40.985400 -0.000006 -0.000013 -0.908223 17.160200 -68.400500 11.754300 -0.000000 0.000003 -0.032959 -0.230731 -26.037000 -2.192510 6.469440 -0.000001 -169.749000 -9.196520 123.566000 -39.081100 -0.002282 -0.040193 -0.118702 0.057344 64.801200 -40.985400 0.000008 0.000006 -5.500770 -18.137300 -73.450000 -11.754300 -0.000006 -0.000006 -0.000022 0.168043 -9.757560
0.000000 0.000000 0.000000 0.000000 0.000000 -0.000000 -0.160867 91.998600 -451.005000 82.018800 0.937036 -21.663900 15.735700 0.000005 -0.000001 47.529900 84.162400 -43.278300 8.984550 -0.406207 -0.000000 1.176450 -8.124110 8.591150 16.377300 -0.000001 -0.000001 -4.071570 7.125940 -2.688480 6.456720 -0.000001 -0.000000 -9.417060 12.393100 -1.330340 12.994200 -0.242716 4.980390 -91.433000 5.428690 -75.189500 5.348090 -0.000007 -0.000001 -67.442600 -24.826700 -9.096930 24.328600 0.000019 0.000005 57.819900 -5.847410 -93.667900 22.291600 -0.000001 0.000005 45.146200 3.857320 26.217800 12.994500 -0.242716 -4.980390 89.718600 0.905437 -72.732800 -5.348130 -0.000001 -0.000004 -51.386000 -18.067500 28.925900 -24.328900 0.000322 -0.000009 6.670830 11.433300 -30.545400 -22.291500 -0.000108 -0.000004 47.675200 5.331480 -0.829040 -2.192480 -6.469440 -0.000000 -171.050000 -9.211030 0.144321 39.081100 -0.000007 -0.000012 0.001876 -0.008307 12.727800 40.985400 -0.000006 -0.000013 1.051020 16.390400 -50.369300 11.754300 -0.000000 0.000003 -0.095964 -0.434444 -34.689900 -2.192510 6.469440 -0.000001 -171.026000 -10.227200 125.247000 -39.081100 -0.002282 -0.040193 -0.038139 0.036610 48.507800 -40.985400 0.000008 0.000006 -6.547730 -13.870600 -74.809300 -11.754300 -0.000006 -0.000006 -0.000152 0.170189 -9.670430
0.000000 0.000000 0.000000 0.000000 0.000000 -0.000000 -0.119886 92.865900 -442.958000 83.592800 0.542192 -20.663700 15.735700 0.000005 -0.000001 44.728100 84.028600 -40.861700 8.984550 -0.406207 -0.000000 0.959801 -8.711170 7.811920 16.377300 -0.000001 -0.000001 -3.105330 7.205510 -2.827540 6.456720 -0.000001 -0.000000 -8.836130 12.821800 -1.617300 12.994200 -0.242716 4.980390 -91.578400 5.838450 -74.843100 5.348090 -0.000007 -0.000001 -67.827100 -21.192900 -5.896800 24.328600 0.000019 0.000005 52.892300 -3.711710 -92.802800 22.291600 -0.000001 0.000005 43.678400 3.881680 25.882100 12.994500 -0.242716 -4.980390 89.572800 1.312060 -71.964800 -5.348130 -0.000001 -0.000004 -48.699300 -19.633400 29.992200 -24.328900 0.000322 -0.000009 6.431540 11.232300 -30.062300 -22.291500 -0.000108 -0.000004 47.794600 5.320460 -0.509390 -2.192480 -6.469440 -0.000000 -172.904000 -8.638770 2.921070 39.081100 -0.000007 -0.000012 -0.003179 0.012890 13.850700 40.985400 -0.000006 -0.000013 1.397440 15.549700 -38.214900 11.754300 -0.000000 0.000003 -0.016422 -0.146609 -22.560800 -2.192510 6.469440 -0.000001 -173.668000 -9.756800 130.882000 -39.081100 -0.002282 -0.040193 -0.004424 0.011071 34.874200 -40.985400 0.000008 0.000006 -8.653220 -7.927430 -76.395100 -11.754300 -0.000006 -0.000006 -0.000571 0.176785 -9.402460
0.000000 0.000000 0.000000 0.000000 0.000000 -0.000000 -0.115956 92.631500 -434.588000 85.098700 0.626938 -18.398000 15.735700 0.000005 -0.000001 46.358400 83.757400 -42.833500 8.984550 -0.406207 -0.000000 1.570340 -8.802850 7.175600 16.377300 -0.000001 -0.000001 -2.301010 6.965060 -3.105420 6.456720 -0.000001 -0.000000 -8.278520 12.572000 -2.004560 12.994200 -0.242716 4.980390 -91.764200 6.452220 -74.672200 5.348090 -0.000007 -0.000001 -68.948400 -16.013500 -2.831820 24.328600 0.000019 0.000005 46.710500 0.985711 -89.070100 22.291600 -0.000001 0.000005 42.743100 3.980140 24.507300 12.994500 -0.242716 -4.980390 89.184900 2.421470 -71.390000 -5.348130 -0.000001 -0.000004 -47.261800 -20.868700 28.924500 -24.328900 0.000322 -0.000009 5.271460 10.064200 -27.837200 -22.291500 -0.000108 -0.000004 49.009900 5.312250 -0.273989 -2.192480 -6.469440 -0.000000 -174.401000 -5.312530 3.591840 39.081100 -0.000007 -0.000012 -0.001241 0.003060 22.077400 40.985400 -0.000006 -0.000013 -2.609270 12.066200 -29.013200 11.754300 -0.000000 0.000003 0.002055 0.048869 -14.594500 -2.192510 6.469440 -0.000001 -175.244000 -8.705870 136.602000 -39.081100 -0.002282 -0.040193 -0.001011 0.007966 28.446800 -40.985400 0.000008 0.000006 -10.307100 -5.333530 -78.257800 -11.754300 -0.000006 -0.000006 -0.000330 0.173046 -9.554370
0.000000 0.000000 0.000000 0.000000 0.000000 -0.000000 -0.308588 91.288100 -426.234000 85.631000 1.718070 -15.879700 15.735700 0.000005 -0.000001 51.560200 83.431100 -47.893500 8.984550 -0.406207 -0.000000 2.828390 -8.318330 7.541950 16.377300 -0.000001 -0.000001 -2.147630 6.298560 -3.309370 6.456720 -0.000001 -0.000000 -7.898960 11.672300 -3.047520 12.994200 -0.242716 4.980390 -91.933300 7.033540 -74.588500 5.348090 -0.000007 -0.000001 -70.748700 -9.947920 -0.847612 24.328600 0.000019 0.000005 45.257600 8.412840 -81.752800 22.291600 -0.000001 0.000005 42.637600 4.093780 22.879400 12.994500 -0.242716 -4.980390 88.929800 3.109470 -70.997300 -5.348130 -0.000001 -0.000004 -48.728100 -21.506900 25.626400 -24.328900 0.000322 -0.000009 4.301860 9.185780 -25.235500 -22.291500 -0.000108 -0.000004 49.191900 5.324880 -0.636895 -2.192480 -6.469440 -0.000000 -174.936000 -1.458720 1.765700 39.081100 -0.000007 -0.000012 -0.029509 0.039755 36.586700 40.985400 -0.000006 -0.000013 -3.419800 10.991500 -30.377100 11.754300 -0.000000 0.000003 0.001986 0.046165 -14.704100 -2.192510 6.469440 -0.000001 -174.224000 -5.616340 141.339000 -39.081100 -0.002282 -0.040193 -0.006706 0.017863 29.264900 -40.985400 0.000008 0.000006 -10.194400 -4.968660 -79.491700 -11.754300 -0.000006 -0.000006 -0.000399 0.174126 -9.510510
